P2
# Imagem com borda 20x20
20 20
255
0 0 0 0 0 0 0 0 0 0 0 0 0 0 0 0 0 0 0 0
0 0 0 0 0 0 0 0 0 0 0 0 0 0 0 0 0 0 0 0
0 0 0 0 0 0 0 0 0 0 0 0 0 0 0 0 0 0 0 0
0 0 0 255 255 255 255 255 255 255 255 255 255 255 255 255 0 0 0 0
0 0 0 255 255 255 255 255 255 255 255 255 255 255 255 255 0 0 0 0
0 0 0 255 255 255 255 255 255 255 255 255 255 255 255 255 0 0 0 0
0 0 0 255 255 255 255 255 255 255 255 255 255 255 255 255 0 0 0 0
0 0 0 255 255 255 255 255 255 255 255 255 255 255 255 255 0 0 0 0
0 0 0 255 255 255 255 255 255 255 255 255 255 255 255 255 0 0 0 0
0 0 0 255 255 255 255 255 255 255 255 255 255 255 255 255 0 0 0 0
0 0 0 255 255 255 255 255 255 255 255 255 255 255 255 255 0 0 0 0
0 0 0 255 255 255 255 255 255 255 255 255 255 255 255 255 0 0 0 0
0 0 0 255 255 255 255 255 255 255 255 255 255 255 255 255 0 0 0 0
0 0 0 255 255 255 255 255 255 255 255 255 255 255 255 255 0 0 0 0
0 0 0 255 255 255 255 255 255 255 255 255 255 255 255 255 0 0 0 0
0 0 0 0 0 0 0 0 0 0 0 0 0 0 0 0 0 0 0 0
0 0 0 0 0 0 0 0 0 0 0 0 0 0 0 0 0 0 0 0
0 0 0 0 0 0 0 0 0 0 0 0 0 0 0 0 0 0 0 0
0 0 0 0 0 0 0 0 0 0 0 0 0 0 0 0 0 0 0 0
0 0 0 0 0 0 0 0 0 0 0 0 0 0 0 0 0 0 0 0
