P2
# Imagem de teste 20x20
20 20
255
0 13 26 39 52 65 78 91 104 117 130 143 156 169 182 195 208 221 234 247
13 26 39 52 65 78 91 104 117 130 143 156 169 182 195 208 221 234 247 255
26 39 52 65 78 91 104 117 130 143 156 169 182 195 208 221 234 247 255 247
39 52 65 78 91 104 117 130 143 156 169 182 195 208 221 234 247 255 247 234
52 65 78 91 104 117 130 143 156 169 182 195 208 221 234 247 255 247 234 221
65 78 91 104 117 130 143 156 169 182 195 208 221 234 247 255 247 234 221 208
78 91 104 117 130 143 156 169 182 195 208 221 234 247 255 247 234 221 208 195
91 104 117 130 143 156 169 182 195 208 221 234 247 255 247 234 221 208 195 182
104 117 130 143 156 169 182 195 208 221 234 247 255 247 234 221 208 195 182 169
117 130 143 156 169 182 195 208 221 234 247 255 247 234 221 208 195 182 169 156
130 143 156 169 182 195 208 221 234 247 255 247 234 221 208 195 182 169 156 143
143 156 169 182 195 208 221 234 247 255 247 234 221 208 195 182 169 156 143 130
156 169 182 195 208 221 234 247 255 247 234 221 208 195 182 169 156 143 130 117
169 182 195 208 221 234 247 255 247 234 221 208 195 182 169 156 143 130 117 104
182 195 208 221 234 247 255 247 234 221 208 195 182 169 156 143 130 117 104 91
195 208 221 234 247 255 247 234 221 208 195 182 169 156 143 130 117 104 91 78
208 221 234 247 255 247 234 221 208 195 182 169 156 143 130 117 104 91 78 65
221 234 247 255 247 234 221 208 195 182 169 156 143 130 117 104 91 78 65 52
234 247 255 247 234 221 208 195 182 169 156 143 130 117 104 91 78 65 52 39
247 255 247 234 221 208 195 182 169 156 143 130 117 104 91 78 65 52 39 26
