P2
# Padrão de xadrez 20x20
20 20
255
255 255 0 0 255 255 0 0 255 255 0 0 255 255 0 0 255 255 0 0
255 255 0 0 255 255 0 0 255 255 0 0 255 255 0 0 255 255 0 0
0 0 255 255 0 0 255 255 0 0 255 255 0 0 255 255 0 0 255 255
0 0 255 255 0 0 255 255 0 0 255 255 0 0 255 255 0 0 255 255
255 255 0 0 255 255 0 0 255 255 0 0 255 255 0 0 255 255 0 0
255 255 0 0 255 255 0 0 255 255 0 0 255 255 0 0 255 255 0 0
0 0 255 255 0 0 255 255 0 0 255 255 0 0 255 255 0 0 255 255
0 0 255 255 0 0 255 255 0 0 255 255 0 0 255 255 0 0 255 255
255 255 0 0 255 255 0 0 255 255 0 0 255 255 0 0 255 255 0 0
255 255 0 0 255 255 0 0 255 255 0 0 255 255 0 0 255 255 0 0
0 0 255 255 0 0 255 255 0 0 255 255 0 0 255 255 0 0 255 255
0 0 255 255 0 0 255 255 0 0 255 255 0 0 255 255 0 0 255 255
255 255 0 0 255 255 0 0 255 255 0 0 255 255 0 0 255 255 0 0
255 255 0 0 255 255 0 0 255 255 0 0 255 255 0 0 255 255 0 0
0 0 255 255 0 0 255 255 0 0 255 255 0 0 255 255 0 0 255 255
0 0 255 255 0 0 255 255 0 0 255 255 0 0 255 255 0 0 255 255
255 255 0 0 255 255 0 0 255 255 0 0 255 255 0 0 255 255 0 0
255 255 0 0 255 255 0 0 255 255 0 0 255 255 0 0 255 255 0 0
0 0 255 255 0 0 255 255 0 0 255 255 0 0 255 255 0 0 255 255
0 0 255 255 0 0 255 255 0 0 255 255 0 0 255 255 0 0 255 255
